<svg width="41" height="35" viewBox="0 0 41 35" fill="none" xmlns="http://www.w3.org/2000/svg">
<path d="M12.181 20.978L39.3 19.615V4.669H8.75L12.181 20.978Z" fill="#FECB2E"/>
<path d="M40.475 19.615V4.669C40.475 4.011 39.958 3.494 39.3 3.494H9.69L9.173 1.144C9.126 0.814998 8.938 0.579999 8.656 0.391999C8.374 0.203999 8.092 0.156999 7.763 0.250999L1.465 1.614C1.136 1.661 0.901002 1.849 0.713002 2.131C0.525002 2.413 0.478002 2.695 0.572002 3.024C0.666002 3.353 0.807001 3.588 1.089 3.776C1.371 3.964 1.653 4.011 1.982 3.917L7.199 2.789L7.622 4.716C7.622 4.857 7.669 4.998 7.716 5.092L11.57 23.469L10.254 25.913C10.066 26.289 10.066 26.712 10.301 27.088C10.489 27.417 10.912 27.652 11.288 27.652H36.621C37.279 27.652 37.796 27.135 37.796 26.477C37.796 25.819 37.279 25.302 36.621 25.302H13.215L13.779 24.221C13.92 23.986 13.967 23.704 13.873 23.422L13.591 22.106L39.347 20.79C40.005 20.743 40.475 20.226 40.475 19.615ZM38.125 18.487H37.89L13.121 19.756L10.207 5.844H38.125V18.487Z" fill="#333333"/>
<path d="M12.604 33.856C14.3172 33.856 15.706 32.4672 15.706 30.754C15.706 29.0408 14.3172 27.652 12.604 27.652C10.8908 27.652 9.50201 29.0408 9.50201 30.754C9.50201 32.4672 10.8908 33.856 12.604 33.856Z" fill="#E0E0E0"/>
<path d="M12.604 34.796C10.395 34.796 8.562 32.963 8.562 30.754C8.562 28.545 10.395 26.712 12.604 26.712C14.813 26.712 16.646 28.545 16.646 30.754C16.646 32.963 14.813 34.796 12.604 34.796ZM12.604 28.592C11.429 28.592 10.442 29.579 10.442 30.754C10.442 31.929 11.429 32.916 12.604 32.916C13.779 32.916 14.766 31.929 14.766 30.754C14.766 29.532 13.779 28.592 12.604 28.592Z" fill="#333333"/>
<path d="M34.271 33.856C35.9842 33.856 37.373 32.4672 37.373 30.754C37.373 29.0408 35.9842 27.652 34.271 27.652C32.5578 27.652 31.169 29.0408 31.169 30.754C31.169 32.4672 32.5578 33.856 34.271 33.856Z" fill="#E0E0E0"/>
<path d="M34.271 34.796C32.062 34.796 30.229 32.963 30.229 30.754C30.229 28.545 32.062 26.712 34.271 26.712C36.48 26.712 38.313 28.545 38.313 30.754C38.313 32.963 36.48 34.796 34.271 34.796ZM34.271 28.592C33.096 28.592 32.109 29.579 32.109 30.754C32.109 31.929 33.096 32.916 34.271 32.916C35.446 32.916 36.433 31.929 36.433 30.754C36.433 29.532 35.446 28.592 34.271 28.592Z" fill="#333333"/>
</svg>
