<svg width="39" height="37" viewBox="0 0 39 37" fill="none" xmlns="http://www.w3.org/2000/svg">
<path d="M25.0679 11.2018L25.0688 11.2036C25.3801 11.8262 25.9902 12.2452 26.6486 12.3649L26.6577 12.3666L26.667 12.3679L36.819 13.8249L36.8193 13.825C37.7355 13.9559 38.1128 15.0984 37.4382 15.7409L37.4381 15.7409L37.4329 15.746L30.1009 22.937L30.1009 22.937L30.0974 22.9404C29.6135 23.4244 29.3658 24.1014 29.4878 24.8332L29.4882 24.8358L31.2272 34.9408L31.2278 34.9439C31.3902 35.8532 30.4064 36.5693 29.6018 36.152C29.6014 36.1518 29.601 36.1516 29.6007 36.1514L20.4847 31.3584L20.4847 31.3584L20.4756 31.3538C19.8648 31.0484 19.1352 31.0484 18.5244 31.3538L18.5243 31.3537L18.5153 31.3584L9.39932 36.1514C9.39894 36.1516 9.39856 36.1518 9.39817 36.152C8.58541 36.5735 7.60902 35.8905 7.77273 34.941L7.77276 34.9408L9.51093 24.8404C9.51108 24.8396 9.51123 24.8388 9.51137 24.838C9.6353 24.1515 9.38755 23.4254 8.90255 22.9404L8.90258 22.9404L8.89793 22.9359L1.56593 15.7919L1.56595 15.7919L1.56183 15.7879C0.885447 15.1438 1.21975 13.9957 2.18854 13.8239L12.333 12.3679L12.3423 12.3666L12.3514 12.3649C13.0098 12.2452 13.6199 11.8262 13.9312 11.2036L13.9321 11.2018L18.4902 1.99161C18.4904 1.99128 18.4905 1.99095 18.4907 1.99062C18.9177 1.13836 20.0826 1.13846 20.5094 1.99093C20.5096 1.99116 20.5097 1.99138 20.5098 1.99161L25.0679 11.2018Z" fill="#FC3D39" stroke="black"/>
</svg>
